<svg width="251" height="75" viewBox="0 0 251 75" fill="none" xmlns="http://www.w3.org/2000/svg">
<g clip-path="url(#clip0_20_5)">
<path d="M67.5199 27.3438H49.7642C49.5275 25.5208 49.0422 23.8755 48.3083 22.4077C47.5744 20.9399 46.6037 19.6851 45.3963 18.6435C44.1889 17.6018 42.7566 16.8087 41.0994 16.2642C39.4659 15.696 37.6548 15.4119 35.6662 15.4119C32.1387 15.4119 29.0966 16.276 26.5398 18.0043C24.0066 19.7325 22.0535 22.2301 20.6804 25.4972C19.331 28.7642 18.6563 32.7178 18.6563 37.358C18.6563 42.1875 19.3428 46.2358 20.7159 49.5028C22.1127 52.7462 24.0658 55.1965 26.5753 56.8537C29.1084 58.4872 32.1032 59.304 35.5597 59.304C37.501 59.304 39.2647 59.0554 40.8509 58.5582C42.4607 58.0611 43.8693 57.339 45.0767 56.392C46.3078 55.4214 47.3139 54.2495 48.0952 52.8764C48.9001 51.4796 49.4565 49.9053 49.7642 48.1534L67.5199 48.2599C67.2121 51.4796 66.277 54.652 64.7145 57.777C63.1757 60.902 61.0568 63.7547 58.358 66.3352C55.6591 68.892 52.3684 70.928 48.4858 72.4432C44.6269 73.9583 40.1998 74.7159 35.2046 74.7159C28.6231 74.7159 22.7282 73.2718 17.5199 70.3835C12.3352 67.4716 8.2396 63.2339 5.23297 57.6705C2.22634 52.107 0.723022 45.3362 0.723022 37.358C0.723022 29.3561 2.25001 22.5734 5.30399 17.0099C8.35797 11.4465 12.4891 7.22065 17.6975 4.33239C22.9058 1.44413 28.7415 0 35.2046 0C39.608 0 43.6799 0.615531 47.4205 1.84659C51.161 3.05398 54.4517 4.82954 57.2926 7.17329C60.1335 9.49337 62.4418 12.3461 64.2173 15.7315C65.9929 19.117 67.0938 22.9877 67.5199 27.3438Z" fill="#020618"/>
<path d="M146.222 37.358C146.222 45.3598 144.683 52.1425 141.605 57.706C138.528 63.2694 134.361 67.4953 129.105 70.3835C123.873 73.2718 118.002 74.7159 111.492 74.7159C104.958 74.7159 99.0747 73.2599 93.8427 70.348C88.6107 67.4361 84.4559 63.2102 81.3782 57.6705C78.3242 52.107 76.7972 45.3362 76.7972 37.358C76.7972 29.3561 78.3242 22.5734 81.3782 17.0099C84.4559 11.4465 88.6107 7.22065 93.8427 4.33239C99.0747 1.44413 104.958 0 111.492 0C118.002 0 123.873 1.44413 129.105 4.33239C134.361 7.22065 138.528 11.4465 141.605 17.0099C144.683 22.5734 146.222 29.3561 146.222 37.358ZM128.253 37.358C128.253 32.6231 127.578 28.6222 126.229 25.3551C124.903 22.0881 122.986 19.6141 120.476 17.9332C117.99 16.2524 114.996 15.4119 111.492 15.4119C108.012 15.4119 105.017 16.2524 102.507 17.9332C99.998 19.6141 98.0685 22.0881 96.7191 25.3551C95.3934 28.6222 94.7305 32.6231 94.7305 37.358C94.7305 42.0928 95.3934 46.0938 96.7191 49.3608C98.0685 52.6278 99.998 55.1018 102.507 56.7827C105.017 58.4635 108.012 59.304 111.492 59.304C114.996 59.304 117.99 58.4635 120.476 56.7827C122.986 55.1018 124.903 52.6278 126.229 49.3608C127.578 46.0938 128.253 42.0928 128.253 37.358Z" fill="#020618"/>
<path d="M218.381 73.7216H203.466L174.525 31.7472H174.063V73.7216H156.485V0.994319H171.613L200.235 42.8977H200.838V0.994319L250.448 0.994319V15.2699H218.381V30.1847H247.287V44.4957H218.381V73.7216Z" fill="#020618"/>
</g>
<defs>
<clipPath id="clip0_20_5">
<rect width="249.725" height="74.7159" fill="white" transform="translate(0.723022)"/>
</clipPath>
</defs>
</svg>
